<mxfile host="app.diagrams.net" agent="Mozilla/5.0 (Windows NT 10.0; Win64; x64) AppleWebKit/537.36 (KHTML, like Gecko) Chrome/131.0.0.0 Safari/537.36" version="24.8.4" pages="3">
  <diagram name="Page-1" id="58cdce13-f638-feb5-8d6f-7d28b1aa9fa0">
    <mxGraphModel dx="1290" dy="565" grid="1" gridSize="10" guides="1" tooltips="1" connect="1" arrows="1" fold="1" page="1" pageScale="1" pageWidth="1100" pageHeight="850" background="none" math="0" shadow="0">
      <root>
        <mxCell id="0" />
        <mxCell id="1" parent="0" />
        <mxCell id="ZRCp92hdRqX8rxyTZjsf-5" value="" style="ellipse;html=1;shape=startState;fillColor=#000000;strokeColor=#ff0000;rounded=1;shadow=0;comic=0;labelBackgroundColor=none;fontFamily=Verdana;fontSize=12;fontColor=#000000;align=center;direction=south;" vertex="1" parent="1">
          <mxGeometry x="140" y="130" width="30" height="30" as="geometry" />
        </mxCell>
        <mxCell id="ZRCp92hdRqX8rxyTZjsf-6" style="edgeStyle=elbowEdgeStyle;html=1;labelBackgroundColor=none;endArrow=open;endSize=8;strokeColor=#ff0000;fontFamily=Verdana;fontSize=12;align=left;exitX=0.25;exitY=1;" edge="1" parent="1">
          <mxGeometry relative="1" as="geometry">
            <mxPoint x="170" y="144.5" as="sourcePoint" />
            <mxPoint x="240" y="144.5" as="targetPoint" />
          </mxGeometry>
        </mxCell>
        <mxCell id="ZRCp92hdRqX8rxyTZjsf-7" value="Idle&lt;div&gt;Waiting for Photo&lt;/div&gt;" style="rounded=1;whiteSpace=wrap;html=1;arcSize=24;fillColor=#ffffc0;strokeColor=#ff0000;shadow=0;comic=0;labelBackgroundColor=none;fontFamily=Verdana;fontSize=12;fontColor=#000000;align=center;" vertex="1" parent="1">
          <mxGeometry x="240" y="120" width="120" height="60" as="geometry" />
        </mxCell>
        <mxCell id="ZRCp92hdRqX8rxyTZjsf-8" style="edgeStyle=elbowEdgeStyle;html=1;labelBackgroundColor=none;endArrow=open;endSize=8;strokeColor=#ff0000;fontFamily=Verdana;fontSize=12;align=left;exitX=0.25;exitY=1;entryX=1;entryY=0.5;entryDx=0;entryDy=0;" edge="1" parent="1" target="ZRCp92hdRqX8rxyTZjsf-5">
          <mxGeometry relative="1" as="geometry">
            <mxPoint x="304.5" y="180" as="sourcePoint" />
            <mxPoint x="160" y="190" as="targetPoint" />
            <Array as="points">
              <mxPoint x="210" y="210" />
            </Array>
          </mxGeometry>
        </mxCell>
        <mxCell id="ZRCp92hdRqX8rxyTZjsf-9" style="edgeStyle=elbowEdgeStyle;html=1;labelBackgroundColor=none;endArrow=open;endSize=8;strokeColor=#ff0000;fontFamily=Verdana;fontSize=12;align=left;exitX=0.25;exitY=1;" edge="1" parent="1">
          <mxGeometry relative="1" as="geometry">
            <mxPoint x="360" y="149.5" as="sourcePoint" />
            <mxPoint x="470" y="149.5" as="targetPoint" />
          </mxGeometry>
        </mxCell>
        <mxCell id="ZRCp92hdRqX8rxyTZjsf-10" value="Getting Photo from the backend" style="rounded=1;whiteSpace=wrap;html=1;arcSize=24;fillColor=#ffffc0;strokeColor=#ff0000;shadow=0;comic=0;labelBackgroundColor=none;fontFamily=Verdana;fontSize=12;fontColor=#000000;align=center;" vertex="1" parent="1">
          <mxGeometry x="470" y="120" width="120" height="60" as="geometry" />
        </mxCell>
        <mxCell id="ZRCp92hdRqX8rxyTZjsf-11" style="edgeStyle=elbowEdgeStyle;html=1;labelBackgroundColor=none;endArrow=open;endSize=8;strokeColor=#ff0000;fontFamily=Verdana;fontSize=12;align=left;exitX=0.25;exitY=1;" edge="1" parent="1">
          <mxGeometry relative="1" as="geometry">
            <mxPoint x="529.5" y="180" as="sourcePoint" />
            <mxPoint x="530" y="290" as="targetPoint" />
          </mxGeometry>
        </mxCell>
        <mxCell id="ZRCp92hdRqX8rxyTZjsf-12" value="Process the Photo with the Constraints" style="rounded=1;whiteSpace=wrap;html=1;arcSize=24;fillColor=#ffffc0;strokeColor=#ff0000;shadow=0;comic=0;labelBackgroundColor=none;fontFamily=Verdana;fontSize=12;fontColor=#000000;align=center;" vertex="1" parent="1">
          <mxGeometry x="470" y="290" width="120" height="60" as="geometry" />
        </mxCell>
        <mxCell id="ZRCp92hdRqX8rxyTZjsf-13" style="edgeStyle=elbowEdgeStyle;html=1;labelBackgroundColor=none;endArrow=open;endSize=8;strokeColor=#ff0000;fontFamily=Verdana;fontSize=12;align=left;exitX=0.25;exitY=1;" edge="1" parent="1" target="ZRCp92hdRqX8rxyTZjsf-14">
          <mxGeometry relative="1" as="geometry">
            <mxPoint x="529.5" y="350" as="sourcePoint" />
            <mxPoint x="530" y="440" as="targetPoint" />
          </mxGeometry>
        </mxCell>
        <mxCell id="ZRCp92hdRqX8rxyTZjsf-14" value="Extract Data" style="rounded=1;whiteSpace=wrap;html=1;arcSize=24;fillColor=#ffffc0;strokeColor=#ff0000;shadow=0;comic=0;labelBackgroundColor=none;fontFamily=Verdana;fontSize=12;fontColor=#000000;align=center;" vertex="1" parent="1">
          <mxGeometry x="470" y="420" width="120" height="60" as="geometry" />
        </mxCell>
        <mxCell id="ZRCp92hdRqX8rxyTZjsf-15" style="edgeStyle=elbowEdgeStyle;html=1;labelBackgroundColor=none;endArrow=open;endSize=8;strokeColor=#ff0000;fontFamily=Verdana;fontSize=12;align=left;exitX=0.25;exitY=1;" edge="1" parent="1">
          <mxGeometry relative="1" as="geometry">
            <mxPoint x="529.5" y="480" as="sourcePoint" />
            <mxPoint x="530" y="570" as="targetPoint" />
          </mxGeometry>
        </mxCell>
        <mxCell id="ZRCp92hdRqX8rxyTZjsf-16" value="Generate Data" style="rounded=1;whiteSpace=wrap;html=1;arcSize=24;fillColor=#ffffc0;strokeColor=#ff0000;shadow=0;comic=0;labelBackgroundColor=none;fontFamily=Verdana;fontSize=12;fontColor=#000000;align=center;" vertex="1" parent="1">
          <mxGeometry x="470" y="570" width="120" height="60" as="geometry" />
        </mxCell>
        <mxCell id="ZRCp92hdRqX8rxyTZjsf-17" style="edgeStyle=elbowEdgeStyle;html=1;labelBackgroundColor=none;endArrow=open;endSize=8;strokeColor=#ff0000;fontFamily=Verdana;fontSize=12;align=left;exitX=0.25;exitY=1;" edge="1" parent="1">
          <mxGeometry relative="1" as="geometry">
            <mxPoint x="590" y="599.5" as="sourcePoint" />
            <mxPoint x="700" y="599.5" as="targetPoint" />
          </mxGeometry>
        </mxCell>
        <mxCell id="ZRCp92hdRqX8rxyTZjsf-18" value="Package Data" style="rounded=1;whiteSpace=wrap;html=1;arcSize=24;fillColor=#ffffc0;strokeColor=#ff0000;shadow=0;comic=0;labelBackgroundColor=none;fontFamily=Verdana;fontSize=12;fontColor=#000000;align=center;" vertex="1" parent="1">
          <mxGeometry x="700" y="570" width="120" height="60" as="geometry" />
        </mxCell>
        <mxCell id="ZRCp92hdRqX8rxyTZjsf-19" style="edgeStyle=elbowEdgeStyle;html=1;labelBackgroundColor=none;endArrow=open;endSize=8;strokeColor=#ff0000;fontFamily=Verdana;fontSize=12;align=left;exitX=0.25;exitY=1;" edge="1" parent="1" target="ZRCp92hdRqX8rxyTZjsf-20">
          <mxGeometry relative="1" as="geometry">
            <mxPoint x="820" y="599.5" as="sourcePoint" />
            <mxPoint x="930" y="599.5" as="targetPoint" />
          </mxGeometry>
        </mxCell>
        <mxCell id="ZRCp92hdRqX8rxyTZjsf-20" value="" style="ellipse;html=1;shape=startState;fillColor=#000000;strokeColor=#ff0000;rounded=1;shadow=0;comic=0;labelBackgroundColor=none;fontFamily=Verdana;fontSize=12;fontColor=#000000;align=center;direction=south;" vertex="1" parent="1">
          <mxGeometry x="915" y="585" width="30" height="30" as="geometry" />
        </mxCell>
        <mxCell id="ZRCp92hdRqX8rxyTZjsf-21" value="&lt;span style=&quot;white-space: pre;&quot;&gt;&#x9;&lt;/span&gt;Wait Status" style="text;html=1;align=center;verticalAlign=middle;resizable=0;points=[];autosize=1;strokeColor=none;fillColor=none;" vertex="1" parent="1">
          <mxGeometry x="145" y="178" width="110" height="30" as="geometry" />
        </mxCell>
      </root>
    </mxGraphModel>
  </diagram>
  <diagram id="kvCXUh2urBdFwkpiGquW" name="Page-2">
    <mxGraphModel dx="1290" dy="565" grid="1" gridSize="10" guides="1" tooltips="1" connect="1" arrows="1" fold="1" page="1" pageScale="1" pageWidth="850" pageHeight="1100" math="0" shadow="0">
      <root>
        <mxCell id="0" />
        <mxCell id="1" parent="0" />
        <mxCell id="c9o4z9zmVBCVjrI5AesH-1" value="" style="ellipse;html=1;shape=startState;fillColor=#000000;strokeColor=#ff0000;rounded=1;shadow=0;comic=0;labelBackgroundColor=none;fontFamily=Verdana;fontSize=12;fontColor=#000000;align=center;direction=south;" vertex="1" parent="1">
          <mxGeometry x="140" y="130" width="30" height="30" as="geometry" />
        </mxCell>
        <mxCell id="c9o4z9zmVBCVjrI5AesH-2" style="edgeStyle=elbowEdgeStyle;html=1;labelBackgroundColor=none;endArrow=open;endSize=8;strokeColor=#ff0000;fontFamily=Verdana;fontSize=12;align=left;exitX=0.25;exitY=1;" edge="1" parent="1">
          <mxGeometry relative="1" as="geometry">
            <mxPoint x="170" y="144.5" as="sourcePoint" />
            <mxPoint x="240" y="144.5" as="targetPoint" />
          </mxGeometry>
        </mxCell>
        <mxCell id="c9o4z9zmVBCVjrI5AesH-3" value="Connection with the API" style="rounded=1;whiteSpace=wrap;html=1;arcSize=24;fillColor=#ffffc0;strokeColor=#ff0000;shadow=0;comic=0;labelBackgroundColor=none;fontFamily=Verdana;fontSize=12;fontColor=#000000;align=center;" vertex="1" parent="1">
          <mxGeometry x="240" y="120" width="120" height="60" as="geometry" />
        </mxCell>
        <mxCell id="c9o4z9zmVBCVjrI5AesH-5" style="edgeStyle=elbowEdgeStyle;html=1;labelBackgroundColor=none;endArrow=open;endSize=8;strokeColor=#ff0000;fontFamily=Verdana;fontSize=12;align=left;exitX=0.25;exitY=1;" edge="1" parent="1">
          <mxGeometry relative="1" as="geometry">
            <mxPoint x="360" y="149.5" as="sourcePoint" />
            <mxPoint x="470" y="149.5" as="targetPoint" />
          </mxGeometry>
        </mxCell>
        <mxCell id="c9o4z9zmVBCVjrI5AesH-6" value="Connected Succesfully" style="rounded=1;whiteSpace=wrap;html=1;arcSize=24;fillColor=#ffffc0;strokeColor=#ff0000;shadow=0;comic=0;labelBackgroundColor=none;fontFamily=Verdana;fontSize=12;fontColor=#000000;align=center;" vertex="1" parent="1">
          <mxGeometry x="470" y="120" width="120" height="60" as="geometry" />
        </mxCell>
        <mxCell id="c9o4z9zmVBCVjrI5AesH-16" value="" style="ellipse;html=1;shape=startState;fillColor=#000000;strokeColor=#ff0000;rounded=1;shadow=0;comic=0;labelBackgroundColor=none;fontFamily=Verdana;fontSize=12;fontColor=#000000;align=center;direction=south;" vertex="1" parent="1">
          <mxGeometry x="460" y="535" width="30" height="30" as="geometry" />
        </mxCell>
        <mxCell id="c9o4z9zmVBCVjrI5AesH-21" style="edgeStyle=elbowEdgeStyle;html=1;labelBackgroundColor=none;endArrow=open;endSize=8;strokeColor=#ff0000;fontFamily=Verdana;fontSize=12;align=left;exitX=0.5;exitY=1;entryX=0.493;entryY=0.747;entryDx=0;entryDy=0;entryPerimeter=0;exitDx=0;exitDy=0;" edge="1" parent="1" source="c9o4z9zmVBCVjrI5AesH-3" target="c9o4z9zmVBCVjrI5AesH-16">
          <mxGeometry relative="1" as="geometry">
            <mxPoint x="299.5" y="160" as="sourcePoint" />
            <mxPoint x="460" y="550" as="targetPoint" />
          </mxGeometry>
        </mxCell>
        <mxCell id="c9o4z9zmVBCVjrI5AesH-23" value="Error Status Handling" style="text;html=1;align=center;verticalAlign=middle;resizable=0;points=[];autosize=1;strokeColor=none;fillColor=none;" vertex="1" parent="1">
          <mxGeometry x="245" y="330" width="140" height="30" as="geometry" />
        </mxCell>
        <mxCell id="c9o4z9zmVBCVjrI5AesH-24" style="edgeStyle=elbowEdgeStyle;html=1;labelBackgroundColor=none;endArrow=open;endSize=8;strokeColor=#ff0000;fontFamily=Verdana;fontSize=12;align=left;exitX=0.25;exitY=1;" edge="1" parent="1">
          <mxGeometry relative="1" as="geometry">
            <mxPoint x="590" y="149.5" as="sourcePoint" />
            <mxPoint x="700" y="149.5" as="targetPoint" />
          </mxGeometry>
        </mxCell>
        <mxCell id="c9o4z9zmVBCVjrI5AesH-25" value="Idle&lt;div&gt;Wating for Data&lt;/div&gt;" style="rounded=1;whiteSpace=wrap;html=1;arcSize=24;fillColor=#ffffc0;strokeColor=#ff0000;shadow=0;comic=0;labelBackgroundColor=none;fontFamily=Verdana;fontSize=12;fontColor=#000000;align=center;" vertex="1" parent="1">
          <mxGeometry x="700" y="120" width="120" height="60" as="geometry" />
        </mxCell>
        <mxCell id="c9o4z9zmVBCVjrI5AesH-26" style="edgeStyle=elbowEdgeStyle;html=1;labelBackgroundColor=none;endArrow=open;endSize=8;strokeColor=#ff0000;fontFamily=Verdana;fontSize=12;align=left;exitX=0.5;exitY=0;entryX=0;entryY=0.5;entryDx=0;entryDy=0;exitDx=0;exitDy=0;" edge="1" parent="1" source="c9o4z9zmVBCVjrI5AesH-25" target="c9o4z9zmVBCVjrI5AesH-1">
          <mxGeometry relative="1" as="geometry">
            <mxPoint x="759.5" y="110" as="sourcePoint" />
            <mxPoint x="160" y="130" as="targetPoint" />
          </mxGeometry>
        </mxCell>
        <mxCell id="c9o4z9zmVBCVjrI5AesH-27" style="edgeStyle=elbowEdgeStyle;html=1;labelBackgroundColor=none;endArrow=open;endSize=8;strokeColor=#ff0000;fontFamily=Verdana;fontSize=12;align=left;exitX=0.25;exitY=1;" edge="1" parent="1">
          <mxGeometry relative="1" as="geometry">
            <mxPoint x="759.5" y="180" as="sourcePoint" />
            <mxPoint x="759.5" y="305" as="targetPoint" />
          </mxGeometry>
        </mxCell>
        <mxCell id="c9o4z9zmVBCVjrI5AesH-28" value="Processed Data" style="rounded=1;whiteSpace=wrap;html=1;arcSize=24;fillColor=#ffffc0;strokeColor=#ff0000;shadow=0;comic=0;labelBackgroundColor=none;fontFamily=Verdana;fontSize=12;fontColor=#000000;align=center;" vertex="1" parent="1">
          <mxGeometry x="700" y="310" width="120" height="60" as="geometry" />
        </mxCell>
        <mxCell id="c9o4z9zmVBCVjrI5AesH-29" style="edgeStyle=elbowEdgeStyle;html=1;labelBackgroundColor=none;endArrow=open;endSize=8;strokeColor=#ff0000;fontFamily=Verdana;fontSize=12;align=left;exitX=0.25;exitY=1;" edge="1" parent="1">
          <mxGeometry relative="1" as="geometry">
            <mxPoint x="759.5" y="370" as="sourcePoint" />
            <mxPoint x="759.5" y="495" as="targetPoint" />
          </mxGeometry>
        </mxCell>
        <mxCell id="c9o4z9zmVBCVjrI5AesH-30" value="Package Data" style="rounded=1;whiteSpace=wrap;html=1;arcSize=24;fillColor=#ffffc0;strokeColor=#ff0000;shadow=0;comic=0;labelBackgroundColor=none;fontFamily=Verdana;fontSize=12;fontColor=#000000;align=center;" vertex="1" parent="1">
          <mxGeometry x="700" y="500" width="120" height="60" as="geometry" />
        </mxCell>
        <mxCell id="c9o4z9zmVBCVjrI5AesH-31" value="Data Sent" style="rounded=1;whiteSpace=wrap;html=1;arcSize=24;fillColor=#ffffc0;strokeColor=#ff0000;shadow=0;comic=0;labelBackgroundColor=none;fontFamily=Verdana;fontSize=12;fontColor=#000000;align=center;" vertex="1" parent="1">
          <mxGeometry x="530" y="505" width="120" height="60" as="geometry" />
        </mxCell>
        <mxCell id="c9o4z9zmVBCVjrI5AesH-32" style="edgeStyle=elbowEdgeStyle;html=1;labelBackgroundColor=none;endArrow=open;endSize=8;strokeColor=#ff0000;fontFamily=Verdana;fontSize=12;align=left;" edge="1" parent="1">
          <mxGeometry relative="1" as="geometry">
            <mxPoint x="700" y="529.5" as="sourcePoint" />
            <mxPoint x="650" y="530" as="targetPoint" />
          </mxGeometry>
        </mxCell>
        <mxCell id="c9o4z9zmVBCVjrI5AesH-33" style="edgeStyle=elbowEdgeStyle;html=1;labelBackgroundColor=none;endArrow=open;endSize=8;strokeColor=#ff0000;fontFamily=Verdana;fontSize=12;align=left;entryX=0.5;entryY=0;entryDx=0;entryDy=0;" edge="1" parent="1" target="c9o4z9zmVBCVjrI5AesH-16">
          <mxGeometry relative="1" as="geometry">
            <mxPoint x="540" y="529.5" as="sourcePoint" />
            <mxPoint x="490" y="530" as="targetPoint" />
          </mxGeometry>
        </mxCell>
      </root>
    </mxGraphModel>
  </diagram>
  <diagram id="5XPnSc-U5hmMVe_7zSW3" name="Page-3">
    <mxGraphModel dx="1290" dy="565" grid="1" gridSize="10" guides="1" tooltips="1" connect="1" arrows="1" fold="1" page="1" pageScale="1" pageWidth="850" pageHeight="1100" math="0" shadow="0">
      <root>
        <mxCell id="0" />
        <mxCell id="1" parent="0" />
        <mxCell id="GtogGWyN2uSlffhuH5km-1" value="" style="ellipse;html=1;shape=startState;fillColor=#000000;strokeColor=#ff0000;rounded=1;shadow=0;comic=0;labelBackgroundColor=none;fontFamily=Verdana;fontSize=12;fontColor=#000000;align=center;direction=south;" vertex="1" parent="1">
          <mxGeometry x="410" y="190" width="30" height="30" as="geometry" />
        </mxCell>
        <mxCell id="GtogGWyN2uSlffhuH5km-2" style="edgeStyle=elbowEdgeStyle;html=1;labelBackgroundColor=none;endArrow=open;endSize=8;strokeColor=#ff0000;fontFamily=Verdana;fontSize=12;align=left;exitX=0.25;exitY=1;" edge="1" parent="1">
          <mxGeometry relative="1" as="geometry">
            <mxPoint x="425" y="210" as="sourcePoint" />
            <mxPoint x="425" y="290" as="targetPoint" />
          </mxGeometry>
        </mxCell>
        <mxCell id="TLuy-9uFMSz2YK432CO1-1" value="Idle&lt;div&gt;Waiting for Photo&lt;/div&gt;" style="rounded=1;whiteSpace=wrap;html=1;arcSize=24;fillColor=#ffffc0;strokeColor=#ff0000;shadow=0;comic=0;labelBackgroundColor=none;fontFamily=Verdana;fontSize=12;fontColor=#000000;align=center;" vertex="1" parent="1">
          <mxGeometry x="365" y="290" width="120" height="60" as="geometry" />
        </mxCell>
        <mxCell id="Jkm4zJDoo1Do1am8y9L2-1" style="edgeStyle=elbowEdgeStyle;html=1;labelBackgroundColor=none;endArrow=open;endSize=8;strokeColor=#ff0000;fontFamily=Verdana;fontSize=12;align=left;exitX=0.25;exitY=1;" edge="1" parent="1">
          <mxGeometry relative="1" as="geometry">
            <mxPoint x="424" y="350" as="sourcePoint" />
            <mxPoint x="424" y="430" as="targetPoint" />
          </mxGeometry>
        </mxCell>
        <mxCell id="eCMDsGivBChf3Ot69rUw-2" value="" style="rhombus;whiteSpace=wrap;html=1;" vertex="1" parent="1">
          <mxGeometry x="404" y="430" width="43" height="50" as="geometry" />
        </mxCell>
        <mxCell id="eCMDsGivBChf3Ot69rUw-5" value="No photo given" style="text;html=1;align=center;verticalAlign=middle;resizable=0;points=[];autosize=1;strokeColor=none;fillColor=none;" vertex="1" parent="1">
          <mxGeometry x="330" y="418" width="100" height="30" as="geometry" />
        </mxCell>
        <mxCell id="eCMDsGivBChf3Ot69rUw-7" value="" style="endArrow=none;html=1;rounded=0;" edge="1" parent="1">
          <mxGeometry width="50" height="50" relative="1" as="geometry">
            <mxPoint x="320" y="455" as="sourcePoint" />
            <mxPoint x="404" y="454.5" as="targetPoint" />
            <Array as="points">
              <mxPoint x="384" y="454.5" />
            </Array>
          </mxGeometry>
        </mxCell>
        <mxCell id="eCMDsGivBChf3Ot69rUw-8" value="" style="endArrow=classic;html=1;rounded=0;" edge="1" parent="1">
          <mxGeometry width="50" height="50" relative="1" as="geometry">
            <mxPoint x="320" y="319.5" as="sourcePoint" />
            <mxPoint x="360" y="320" as="targetPoint" />
          </mxGeometry>
        </mxCell>
        <mxCell id="eCMDsGivBChf3Ot69rUw-10" value="" style="endArrow=none;html=1;rounded=0;" edge="1" parent="1">
          <mxGeometry width="50" height="50" relative="1" as="geometry">
            <mxPoint x="320" y="450" as="sourcePoint" />
            <mxPoint x="320" y="320" as="targetPoint" />
          </mxGeometry>
        </mxCell>
        <mxCell id="eCMDsGivBChf3Ot69rUw-12" value="" style="endArrow=none;html=1;rounded=0;" edge="1" parent="1">
          <mxGeometry width="50" height="50" relative="1" as="geometry">
            <mxPoint x="447" y="455" as="sourcePoint" />
            <mxPoint x="531" y="454.5" as="targetPoint" />
            <Array as="points">
              <mxPoint x="511" y="454.5" />
            </Array>
          </mxGeometry>
        </mxCell>
        <mxCell id="eCMDsGivBChf3Ot69rUw-13" value="Photo from the backend" style="text;html=1;align=center;verticalAlign=middle;resizable=0;points=[];autosize=1;strokeColor=none;fillColor=none;" vertex="1" parent="1">
          <mxGeometry x="430" y="410" width="150" height="30" as="geometry" />
        </mxCell>
        <mxCell id="eCMDsGivBChf3Ot69rUw-15" value="" style="endArrow=classic;html=1;rounded=0;" edge="1" parent="1">
          <mxGeometry width="50" height="50" relative="1" as="geometry">
            <mxPoint x="530" y="460" as="sourcePoint" />
            <mxPoint x="530" y="570" as="targetPoint" />
          </mxGeometry>
        </mxCell>
        <mxCell id="eCMDsGivBChf3Ot69rUw-16" value="Process the Photo&amp;nbsp;" style="rounded=1;whiteSpace=wrap;html=1;arcSize=24;fillColor=#ffffc0;strokeColor=#ff0000;shadow=0;comic=0;labelBackgroundColor=none;fontFamily=Verdana;fontSize=12;fontColor=#000000;align=center;" vertex="1" parent="1">
          <mxGeometry x="470" y="570" width="120" height="60" as="geometry" />
        </mxCell>
        <mxCell id="xzNhXAY3uw-atgoBtF4O-1" style="edgeStyle=elbowEdgeStyle;html=1;labelBackgroundColor=none;endArrow=open;endSize=8;strokeColor=#ff0000;fontFamily=Verdana;fontSize=12;align=left;exitX=0.25;exitY=1;" edge="1" parent="1">
          <mxGeometry relative="1" as="geometry">
            <mxPoint x="530" y="630" as="sourcePoint" />
            <mxPoint x="530" y="710" as="targetPoint" />
          </mxGeometry>
        </mxCell>
        <mxCell id="xzNhXAY3uw-atgoBtF4O-2" value="" style="rhombus;whiteSpace=wrap;html=1;" vertex="1" parent="1">
          <mxGeometry x="510" y="710" width="43" height="50" as="geometry" />
        </mxCell>
        <mxCell id="xzNhXAY3uw-atgoBtF4O-4" style="edgeStyle=elbowEdgeStyle;html=1;labelBackgroundColor=none;endArrow=open;endSize=8;strokeColor=#ff0000;fontFamily=Verdana;fontSize=12;align=left;exitX=0.25;exitY=1;" edge="1" parent="1">
          <mxGeometry relative="1" as="geometry">
            <mxPoint x="510" y="734.5" as="sourcePoint" />
            <mxPoint x="430" y="734.5" as="targetPoint" />
          </mxGeometry>
        </mxCell>
        <mxCell id="xzNhXAY3uw-atgoBtF4O-5" value="Fail to extract data" style="text;html=1;align=center;verticalAlign=middle;resizable=0;points=[];autosize=1;strokeColor=none;fillColor=none;" vertex="1" parent="1">
          <mxGeometry x="404" y="700" width="120" height="30" as="geometry" />
        </mxCell>
        <mxCell id="xzNhXAY3uw-atgoBtF4O-6" value="" style="ellipse;html=1;shape=endState;fillColor=#000000;strokeColor=#ff0000;rounded=1;shadow=0;comic=0;labelBackgroundColor=none;fontFamily=Verdana;fontSize=12;fontColor=#000000;align=center;" vertex="1" parent="1">
          <mxGeometry x="400" y="720" width="30" height="30" as="geometry" />
        </mxCell>
        <mxCell id="xzNhXAY3uw-atgoBtF4O-8" style="edgeStyle=elbowEdgeStyle;html=1;labelBackgroundColor=none;endArrow=open;endSize=8;strokeColor=#ff0000;fontFamily=Verdana;fontSize=12;align=left;exitX=0.25;exitY=1;" edge="1" parent="1">
          <mxGeometry relative="1" as="geometry">
            <mxPoint x="531" y="760" as="sourcePoint" />
            <mxPoint x="531" y="840" as="targetPoint" />
          </mxGeometry>
        </mxCell>
        <mxCell id="xzNhXAY3uw-atgoBtF4O-9" value="Package data&amp;nbsp;" style="rounded=1;whiteSpace=wrap;html=1;arcSize=24;fillColor=#ffffc0;strokeColor=#ff0000;shadow=0;comic=0;labelBackgroundColor=none;fontFamily=Verdana;fontSize=12;fontColor=#000000;align=center;" vertex="1" parent="1">
          <mxGeometry x="471.5" y="840" width="120" height="60" as="geometry" />
        </mxCell>
        <mxCell id="xzNhXAY3uw-atgoBtF4O-10" value="data extracted succesfully&amp;nbsp;" style="text;html=1;align=center;verticalAlign=middle;resizable=0;points=[];autosize=1;strokeColor=none;fillColor=none;rotation=0;" vertex="1" parent="1">
          <mxGeometry x="460" y="790" width="160" height="30" as="geometry" />
        </mxCell>
        <mxCell id="7wVU7F0qN1NW-t0vtCEf-1" style="edgeStyle=elbowEdgeStyle;html=1;labelBackgroundColor=none;endArrow=open;endSize=8;strokeColor=#ff0000;fontFamily=Verdana;fontSize=12;align=left;exitX=0.25;exitY=1;" edge="1" parent="1">
          <mxGeometry relative="1" as="geometry">
            <mxPoint x="529.5" y="900" as="sourcePoint" />
            <mxPoint x="529.5" y="980" as="targetPoint" />
          </mxGeometry>
        </mxCell>
        <mxCell id="7wVU7F0qN1NW-t0vtCEf-4" value="" style="ellipse;html=1;shape=endState;fillColor=#000000;strokeColor=#ff0000;rounded=1;shadow=0;comic=0;labelBackgroundColor=none;fontFamily=Verdana;fontSize=12;fontColor=#000000;align=center;" vertex="1" parent="1">
          <mxGeometry x="516.5" y="980" width="30" height="30" as="geometry" />
        </mxCell>
      </root>
    </mxGraphModel>
  </diagram>
</mxfile>
